M48
; DRILL file {KiCad 7.0.5} date Fri Mar 29 11:12:01 2024
; FORMAT={-:-/ absolute / metric / decimal}
; #@! TF.CreationDate,2024-03-29T11:12:01+04:00
; #@! TF.GenerationSoftware,Kicad,Pcbnew,7.0.5
; #@! TF.FileFunction,Plated,1,2,PTH
FMAT,2
METRIC
; #@! TA.AperFunction,Plated,PTH,ComponentDrill
T1C0.750
; #@! TA.AperFunction,Plated,PTH,ComponentDrill
T2C0.800
; #@! TA.AperFunction,Plated,PTH,ComponentDrill
T3C0.900
; #@! TA.AperFunction,Plated,PTH,ComponentDrill
T4C1.000
; #@! TA.AperFunction,Plated,PTH,ComponentDrill
T5C1.100
; #@! TA.AperFunction,Plated,PTH,ComponentDrill
T6C1.200
; #@! TA.AperFunction,Plated,PTH,ComponentDrill
T7C1.520
; #@! TA.AperFunction,Plated,PTH,ComponentDrill
T8C1.800
%
G90
G05
T1
X83.82Y171.45
X85.09Y171.45
X86.36Y171.45
T2
X69.85Y133.35
X76.2Y146.05
X80.01Y151.13
X80.01Y158.75
X82.55Y133.35
X82.55Y151.13
X82.55Y158.75
X85.09Y151.13
X85.09Y158.75
X87.63Y151.13
X87.63Y158.75
X88.9Y133.35
X88.9Y146.05
X95.25Y146.05
X95.25Y158.75
X95.25Y171.45
X101.6Y133.35
X101.6Y139.7
X101.6Y158.75
X101.6Y171.45
X107.95Y146.05
X107.95Y158.75
X107.95Y171.45
X114.3Y139.7
T3
X86.36Y139.7
X88.9Y139.7
X95.25Y139.7
X97.79Y139.7
X111.76Y158.75
X114.3Y158.75
T4
X68.7Y127.0
X69.85Y139.7
X75.05Y165.1
X76.2Y127.0
X76.2Y170.3
X76.2Y177.8
X77.35Y139.7
X77.47Y114.3
X80.01Y114.3
X82.55Y114.3
X82.55Y165.1
X94.1Y152.4
X101.6Y152.4
X104.14Y152.4
X114.3Y152.4
X121.92Y171.45
X124.46Y171.45
X127.0Y171.45
T5
X66.04Y133.35
X66.04Y135.89
X66.04Y138.43
T6
X56.0Y171.45
X63.5Y171.45
X119.5Y133.35
X127.0Y133.35
T7
X96.52Y184.15
X101.6Y114.3
X101.6Y184.15
X106.68Y114.3
T8
X120.65Y152.4
X135.89Y152.4
T0
M30
